<?xml version="1.0" encoding="UTF-8" standalone="no"?>
<svg width="1920" height="600" xmlns="http://www.w3.org/2000/svg">
  <defs>
    <linearGradient id="grad1" x1="0%" y1="0%" x2="100%" y2="100%">
      <stop offset="0%" style="stop-color:#ff6b35;stop-opacity:1" />
      <stop offset="100%" style="stop-color:#e55a2b;stop-opacity:1" />
    </linearGradient>
  </defs>
  <rect width="1920" height="600" fill="url(#grad1)" />
  
  <!-- Pattern elements -->
  <g fill="rgba(255,255,255,0.2)">
    <circle cx="100" cy="100" r="5" />
    <circle cx="200" cy="200" r="3" />
    <circle cx="300" cy="150" r="4" />
    <circle cx="400" cy="300" r="2" />
    <circle cx="500" cy="250" r="5" />
    <circle cx="600" cy="100" r="3" />
    <circle cx="700" cy="350" r="4" />
    <circle cx="800" cy="200" r="2" />
    <circle cx="900" cy="300" r="5" />
    <circle cx="1000" cy="150" r="3" />
    <circle cx="1100" cy="400" r="4" />
    <circle cx="1200" cy="250" r="2" />
    <circle cx="1300" cy="100" r="5" />
    <circle cx="1400" cy="350" r="3" />
    <circle cx="1500" cy="200" r="4" />
    <circle cx="1600" cy="300" r="2" />
    <circle cx="1700" cy="150" r="5" />
    <circle cx="1800" cy="400" r="3" />
  </g>
  
  <text x="960" y="300" font-family="Arial" font-size="60" text-anchor="middle" fill="rgba(255,255,255,0.3)">Ready to Start Your Project?</text>
</svg>
