<?xml version="1.0" encoding="UTF-8" standalone="no"?>
<svg width="1920" height="1080" xmlns="http://www.w3.org/2000/svg">
  <defs>
    <linearGradient id="grad1" x1="0%" y1="0%" x2="100%" y2="100%">
      <stop offset="0%" style="stop-color:#0b3954;stop-opacity:1" />
      <stop offset="100%" style="stop-color:#1d5b7a;stop-opacity:1" />
    </linearGradient>
  </defs>
  <rect width="1920" height="1080" fill="url(#grad1)" />
  <text x="960" y="540" font-family="Arial" font-size="100" text-anchor="middle" fill="rgba(255,255,255,0.2)">Mendez Roofing</text>
  
  <!-- Pattern elements -->
  <g fill="rgba(255,255,255,0.05)">
    <path d="M200,300 L300,450 L100,450 Z" />
    <path d="M500,200 L600,350 L400,350 Z" />
    <path d="M800,500 L900,650 L700,650 Z" />
    <path d="M1200,300 L1300,450 L1100,450 Z" />
    <path d="M1500,600 L1600,750 L1400,750 Z" />
    <path d="M1700,200 L1800,350 L1600,350 Z" />
    <path d="M300,700 L400,850 L200,850 Z" />
    <path d="M600,800 L700,950 L500,950 Z" />
    <path d="M1000,700 L1100,850 L900,850 Z" />
    <path d="M1400,800 L1500,950 L1300,950 Z" />
  </g>
</svg>
